<svg width="31" height="31" viewBox="0 0 31 31" fill="none" xmlns="http://www.w3.org/2000/svg">
<path d="M12.0125 23.0563C12.0125 23.861 11.7739 24.6476 11.3268 25.3167C10.8797 25.9858 10.2443 26.5073 9.5008 26.8153C8.75733 27.1232 7.93924 27.2038 7.14998 27.0468C6.36072 26.8898 5.63574 26.5023 5.06671 25.9333C4.49769 25.3643 4.11018 24.6393 3.95318 23.85C3.79619 23.0608 3.87676 22.2427 4.18472 21.4992C4.49267 20.7557 5.01417 20.1203 5.68328 19.6732C6.35238 19.2261 7.13903 18.9875 7.94375 18.9875H23.0563C23.861 18.9875 24.6476 19.2261 25.3167 19.6732C25.9858 20.1203 26.5073 20.7557 26.8153 21.4992C27.1232 22.2427 27.2038 23.0608 27.0468 23.85C26.8898 24.6393 26.5023 25.3643 25.9333 25.9333C25.3643 26.5023 24.6393 26.8898 23.85 27.0468C23.0608 27.2038 22.2427 27.1232 21.4992 26.8153C20.7557 26.5073 20.1203 25.9858 19.6732 25.3167C19.2261 24.6476 18.9875 23.861 18.9875 23.0563V7.94375C18.9875 7.13903 19.2261 6.35238 19.6732 5.68328C20.1203 5.01417 20.7557 4.49267 21.4992 4.18472C22.2427 3.87676 23.0608 3.79619 23.85 3.95318C24.6393 4.11018 25.3643 4.49769 25.9333 5.06671C26.5023 5.63574 26.8898 6.36072 27.0468 7.14998C27.2038 7.93924 27.1232 8.75733 26.8153 9.5008C26.5073 10.2443 25.9858 10.8797 25.3167 11.3268C24.6476 11.7739 23.861 12.0125 23.0563 12.0125H7.94375C7.13903 12.0125 6.35238 11.7739 5.68328 11.3268C5.01417 10.8797 4.49267 10.2443 4.18472 9.5008C3.87676 8.75733 3.79619 7.93924 3.95318 7.14998C4.11018 6.36072 4.49769 5.63574 5.06671 5.06671C5.63574 4.49769 6.36072 4.11018 7.14998 3.95318C7.93924 3.79619 8.75733 3.87676 9.5008 4.18472C10.2443 4.49267 10.8797 5.01417 11.3268 5.68328C11.7739 6.35238 12.0125 7.13903 12.0125 7.94375V23.0563Z" stroke="currentColor" stroke-width="1.5"/>
</svg>
