<svg width="88" height="66" viewBox="0 0 88 66" fill="none" xmlns="http://www.w3.org/2000/svg">
<path fill-rule="evenodd" clip-rule="evenodd" d="M57.7538 44.872C54.9698 44.872 53.0258 43.048 52.7378 40.648L54.1058 40.312C54.2978 42.112 55.7378 43.6 57.7778 43.6C60.8018 43.6 61.7138 41.56 61.7138 39.184V37.072C61.2098 38.248 59.9378 39.4 57.8498 39.4C54.8498 39.4 52.7378 37.024 52.7378 33.832C52.7378 30.712 54.8018 28.288 57.8498 28.288C59.9858 28.288 61.1618 29.344 61.7378 30.52V28.552H63.1538V39.16C63.1538 41.824 61.9778 44.872 57.7538 44.872ZM54.1778 33.832C54.1778 36.328 55.7138 38.152 58.0178 38.152C60.2738 38.152 61.7618 36.328 61.7618 33.832C61.7618 31.36 60.2738 29.536 58.0178 29.536C55.7378 29.536 54.1778 31.336 54.1778 33.832ZM71.6144 29.56C69.6464 29.56 68.4224 31.216 68.4224 33.16V40H66.9824V28.552H68.3744V30.376C68.9984 29.152 70.3424 28.264 72.0944 28.264C74.7824 28.264 76.1504 30.184 76.1504 32.536V40H74.7104V32.776C74.7104 30.976 73.8224 29.56 71.6144 29.56Z" fill="white"/>
<path d="M79.9183 17.1613C81.8049 21.5599 79.7147 27.342 74.4451 33.2176C69.2061 39.0591 60.948 44.8389 50.9061 49.146C40.8643 53.4531 30.9848 55.4528 23.1415 55.2225C15.2524 54.9908 9.62241 52.52 7.73578 48.1214C5.84915 43.7228 7.93937 37.9407 13.2089 32.0652C18.4479 26.2236 26.7061 20.4438 36.748 16.1367C46.7898 11.8296 56.6693 9.82991 64.5126 10.0602C72.4017 10.2919 78.0317 12.7627 79.9183 17.1613Z" stroke="#AC8ED1"/>
<path d="M11.5679 34.264C11.5679 31.504 13.1519 29.536 15.5519 29.536C17.9039 29.536 19.4159 31.552 19.4159 34.264C19.4159 36.952 17.9039 39.016 15.5279 39.016C13.1039 39.016 11.5679 36.952 11.5679 34.264ZM19.4159 38.2C19.4159 39.016 19.4879 39.712 19.5359 40H20.9519C20.9279 39.88 20.8319 39.04 20.8319 37.816V22.672H19.3919V30.712C18.9839 29.728 17.8559 28.24 15.4079 28.24C12.2399 28.24 10.1279 30.904 10.1279 34.264C10.1279 37.672 12.1919 40.312 15.4079 40.312C17.6399 40.312 18.9119 38.92 19.4159 37.744V38.2ZM25.4212 33.352C25.5652 31.24 27.1012 29.536 29.2372 29.536C31.6372 29.536 33.0052 31.216 33.0532 33.352H25.4212ZM33.2212 36.304C32.7412 37.816 31.5412 39.016 29.4772 39.016C27.2212 39.016 25.3972 37.288 25.3732 34.648V34.552H34.5412C34.5652 34.36 34.5652 34.216 34.5652 34.024C34.5412 30.64 32.5972 28.24 29.2132 28.24C26.3572 28.24 23.9092 30.64 23.9092 34.24C23.9092 38.08 26.4532 40.312 29.4772 40.312C32.1172 40.312 33.8452 38.704 34.4932 36.76L33.2212 36.304ZM36.5849 37C36.8009 38.512 38.2169 40.312 41.0249 40.312C43.5689 40.312 45.0089 38.632 45.0089 36.928C45.0089 35.272 43.9289 34.192 42.0329 33.76L40.2089 33.352C39.0329 33.088 38.4089 32.512 38.4089 31.528C38.4089 30.328 39.5609 29.512 40.8569 29.512C42.6809 29.512 43.4729 30.592 43.6889 31.696L44.9609 31.216C44.6489 29.848 43.5209 28.264 40.8569 28.264C38.7689 28.264 36.9929 29.776 36.9929 31.624C36.9929 33.28 38.1209 34.288 39.8009 34.672L41.6489 35.104C42.8729 35.392 43.5929 35.968 43.5929 37.024C43.5929 38.224 42.4649 39.064 41.0489 39.064C39.1769 39.064 38.1209 37.936 37.9049 36.544L36.5849 37ZM49.5318 40V28.552H48.0918V40H49.5318ZM47.6118 23.8C47.6118 24.496 48.1398 25 48.8118 25C49.4838 25 50.0118 24.496 50.0118 23.8C50.0118 23.104 49.4838 22.6 48.8118 22.6C48.1398 22.6 47.6118 23.104 47.6118 23.8Z" fill="white"/>
</svg>
