<svg width="20" height="20" viewBox="0 0 20 20" fill="none" xmlns="http://www.w3.org/2000/svg">
<path d="M17.5292 4.38083C18.2876 5.29083 18.6659 6.3525 18.6659 7.56583C18.6659 11.9633 16.1642 13.2525 13.8134 13.6317C14.1167 14.1625 14.1926 14.7692 14.1926 15.3758V18.4842C14.1926 18.8633 13.9651 19.0908 13.6617 19.0908C13.5817 19.092 13.5024 19.077 13.4282 19.0469C13.3541 19.0168 13.2868 18.9722 13.2302 18.9156C13.1737 18.8591 13.129 18.7918 13.099 18.7176C13.0689 18.6435 13.0539 18.5641 13.0551 18.4842V15.3758C13.095 15.058 13.061 14.7353 12.9558 14.4328C12.8506 14.1302 12.6769 13.8561 12.4484 13.6317L12.8276 12.6458C15.1784 12.3425 17.6051 11.5842 17.6051 7.49C17.6051 6.50417 17.2259 5.59417 16.5434 4.83583L16.3917 4.23C16.6801 3.50337 16.7066 2.69904 16.4667 1.955C16.0884 2.03 15.3301 2.1825 14.0417 3.0925L13.5859 3.1675C11.7949 2.71272 9.91858 2.71272 8.12756 3.1675L7.67172 3.0925C6.30839 2.25833 5.55006 2.03083 5.17006 2.03083C4.94256 2.78917 4.94256 3.6225 5.24506 4.30583L5.09422 4.91167C4.33589 5.67 3.95672 6.65583 3.95672 7.56583C3.95672 11.5842 6.23172 12.4183 8.73339 12.7217L9.03672 13.7075C8.58172 14.1625 8.35422 14.7692 8.43006 15.3758V18.56C8.43118 18.64 8.41625 18.7194 8.38616 18.7935C8.35607 18.8676 8.31143 18.9349 8.25487 18.9915C8.19831 19.048 8.13098 19.0927 8.05687 19.1228C7.98276 19.1529 7.90337 19.1678 7.82339 19.1667C7.74341 19.1678 7.66402 19.1529 7.58991 19.1228C7.5158 19.0927 7.44847 19.048 7.39191 18.9915C7.33535 18.9349 7.29071 18.8676 7.26062 18.7935C7.23053 18.7194 7.2156 18.64 7.21672 18.56V16.8167C4.71506 17.3475 3.72922 16.0583 2.97089 15.0733C2.59172 14.6183 2.28839 14.2392 1.90922 14.1633C1.83422 14.0875 1.60589 13.7842 1.68172 13.4808C1.75756 13.1775 2.06089 12.95 2.36506 13.1017C3.12339 13.2533 3.57756 13.86 4.03172 14.3908C4.71506 15.3008 5.39756 16.1342 7.44422 15.68V15.3767C7.36922 14.77 7.52006 14.1633 7.82339 13.6325C5.54839 13.1775 2.89506 11.8883 2.89506 7.56667C2.89506 6.35333 3.27422 5.29167 4.03256 4.38167C3.80506 3.32083 3.88089 2.18333 4.26006 1.27333L4.63922 0.97C4.79089 0.894167 5.85256 0.666667 8.05006 2.03083C9.86701 1.57589 11.7681 1.57589 13.5851 2.03083C15.7092 0.59 16.8467 0.816667 16.9984 0.893333L17.3776 1.19667C17.7567 2.25833 17.8326 3.32 17.5292 4.38083V4.38083Z" fill="currentColor"/>
</svg>
