<svg width="20" height="20" viewBox="0 0 20 20" fill="none" xmlns="http://www.w3.org/2000/svg">
<path fill-rule="evenodd" clip-rule="evenodd" d="M7.85758 7.47416H10.9526V9.01583C11.3984 8.12916 12.5417 7.3325 14.2592 7.3325C17.5517 7.3325 18.3334 9.0975 18.3334 12.3358V18.3333H15.0001V13.0733C15.0001 11.2292 14.5542 10.1892 13.4192 10.1892C11.8451 10.1892 11.1909 11.31 11.1909 13.0725V18.3333H7.85758V7.47416V7.47416ZM2.14175 18.1917H5.47508V7.3325H2.14175V18.1917V18.1917ZM5.95258 3.79166C5.9527 4.07106 5.89729 4.34769 5.78957 4.60549C5.68185 4.86328 5.52396 5.09709 5.32508 5.29333C4.92208 5.69385 4.37659 5.91804 3.80841 5.91666C3.24124 5.91628 2.69701 5.69266 2.29341 5.29416C2.09526 5.09726 1.9379 4.86318 1.83037 4.60536C1.72283 4.34753 1.66723 4.07102 1.66675 3.79166C1.66675 3.2275 1.89175 2.6875 2.29425 2.28916C2.69749 1.89013 3.24195 1.66641 3.80925 1.66666C4.37758 1.66666 4.92258 1.89083 5.32508 2.28916C5.72675 2.6875 5.95258 3.2275 5.95258 3.79166Z" fill="currentColor"/>
</svg>
