<svg width="20" height="20" viewBox="0 0 20 20" fill="none" xmlns="http://www.w3.org/2000/svg">
<path d="M17.5 6.12753V13.8725C17.5 14.0541 17.4016 14.2213 17.2429 14.3096L10.2429 18.1984C10.0919 18.2823 9.90818 18.2823 9.75718 18.1984L2.75719 14.3096C2.59847 14.2213 2.50002 14.0541 2.50002 13.8725L2.5 6.12753C2.5 5.94595 2.59845 5.77864 2.75718 5.69046L9.75718 1.80157C9.90818 1.71767 10.0919 1.71767 10.2429 1.80157L17.2429 5.69046C17.4015 5.77864 17.5 5.94595 17.5 6.12753Z" stroke="currentColor" stroke-width="1.5" stroke-linecap="round" stroke-linejoin="round"/>
<path d="M2.94043 6.07798L9.75723 9.86509C9.90823 9.949 10.0919 9.949 10.2429 9.86509L17.0834 6.06481" stroke="currentColor" stroke-width="1.5" stroke-linecap="round" stroke-linejoin="round"/>
<path d="M10 17.5V10" stroke="currentColor" stroke-width="1.5" stroke-linecap="round" stroke-linejoin="round"/>
<path d="M9.74283 9.85709L3.24283 6.24601C2.90956 6.06087 2.5 6.30185 2.5 6.68309V13.8725C2.5 14.0541 2.59844 14.2213 2.75717 14.3096L9.25717 17.9207C9.59042 18.1058 10 17.8648 10 17.4836V10.2942C10 10.1126 9.90158 9.94534 9.74283 9.85709Z" fill="currentColor" stroke="currentColor" stroke-width="1.5" stroke-linejoin="round"/>
</svg>
